<svg version="1.2" xmlns="http://www.w3.org/2000/svg" viewBox="0 0 9 17" width="9" height="17"><defs><clipPath clipPathUnits="userSpaceOnUse" id="cp1"><path d="m-385-16h1920v3447h-1920z"/></clipPath></defs><style>.a{fill:#151517}</style><g clip-path="url(#cp1)"><path class="a" d="m8.7 1h-1.9c-2.2 0-3.6 1.5-3.6 3.9v1.9h-1.9c-0.2 0-0.3 0.1-0.3 0.3v2.6c0 0.2 0.1 0.3 0.3 0.3h1.9v6.7c0 0.2 0.2 0.3 0.3 0.3h2.5c0.2 0 0.4-0.1 0.4-0.3v-6.7h2.2c0.2 0 0.3-0.1 0.3-0.3v-2.6q0-0.2-0.1-0.3-0.1 0-0.2 0h-2.2v-1.6c0-0.7 0.1-1.1 1-1.1h1.3c0.2 0 0.3-0.1 0.3-0.3v-2.5c0-0.2-0.1-0.3-0.3-0.3z"/></g></svg>