<svg version="1.2" xmlns="http://www.w3.org/2000/svg" viewBox="0 0 71 69" width="71" height="69"><defs><clipPath clipPathUnits="userSpaceOnUse" id="cp1"><path d="m-474-720h1920v3447h-1920z"/></clipPath></defs><style>.a{fill:#878787}</style><g clip-path="url(#cp1)"><path fill-rule="evenodd" class="a" d="m67.3 42.1c1 0.9 1.3 2.2 0.9 3.4-4.5 13.6-17.5 23.5-32.7 23.5-11.8 0-22.6-5.9-28.9-15.6-0.3-0.4-0.8-0.6-1.3-0.5l-3.9 1.1c-0.8 0.2-1.6-0.5-1.4-1.3l3.4-13.2 0.6-2.6c0.3-0.9 1.3-1.1 1.9-0.5l3.3 3.1 8.6 8.2c0.6 0.6 0.3 1.6-0.5 1.9l-4.3 1.2c5.1 7.1 13.4 11.5 22.5 11.5 12.2 0 22.6-7.9 26.2-18.8 0.8-2.4 3.8-3.2 5.6-1.5zm-2.5-24.8c-6.2-10.1-17.3-16.3-29.4-16.3-15.2 0-28.2 9.9-32.7 23.5-0.4 1.2 0 2.6 0.9 3.5h0.1c1.8 1.8 4.7 1 5.5-1.4 3.6-10.9 14-18.8 26.2-18.8 9.1 0 17.4 4.3 22.5 11.5l-4.2 1.2c-0.9 0.2-1.1 1.3-0.5 1.9l8.5 8.1 3.3 3.2c0.6 0.6 1.7 0.3 1.9-0.5l0.7-2.7 3.3-13.1c0.2-0.9-0.6-1.6-1.4-1.4zm-29.9 15.2l-2 2.9v0.1h2.5v-2.9c0-0.6 0.1-1.4 0.1-1.4 0 0-0.3 0.8-0.6 1.3zm18.9 2.5c0 10.1-8.2 18.2-18.4 18.2-10.2 0-18.4-8.1-18.4-18.2 0-10 8.2-18.2 18.4-18.2 10.2 0 18.4 8.2 18.4 18.2zm-25.4 3.4h-5.4c0.1-1.6 5.2-2.4 5.2-6.3 0-2.7-2.2-3.8-4.3-3.8-3.3 0-4.5 2.7-4.5 2.7l2.3 1.5c0 0 0.7-1.3 1.9-1.3 0.7 0 1.4 0.3 1.4 1.2 0 1.8-5.5 2.6-5.5 7.3q0 0.6 0.1 1.4h8.8v-2.7zm11.6-2.9h-1.5v-7h-3.8l-4.9 7.6v1.9h5.6v3.1h3.1v-3.1h1.5v-2.5zm11.2 5.6v-5.9c0-2.6-1.5-3.4-3.3-3.4-1.2 0-2.3 0.5-2.8 1.4 0 0 0-0.3 0-0.8v-3.9h-3.1v12.6h3.1v-4.1q0-0.6 0.2-1.1c0.2-0.8 0.8-1.4 1.8-1.4 0.7 0 1 0.4 1 1.2v5.4z"/></g></svg>