<svg version="1.2" xmlns="http://www.w3.org/2000/svg" viewBox="0 0 66 69" width="66" height="69"><defs><clipPath clipPathUnits="userSpaceOnUse" id="cp1"><path d="m-1077-721h1920v3447h-1920z"/></clipPath></defs><style>.a{fill:#151517}</style><g clip-path="url(#cp1)"><path fill-rule="evenodd" class="a" d="m62.9 46.4c2.6-3.7 3.1-9.1-0.3-12.2 1.3-2 2.5-4.8 1.9-7.7-0.8-3.3-4.3-4.6-6.3-5.1-1.7-0.4-3.5-0.5-5.5-0.5-3.5 0-7 0.5-10.2 1.1 0-5.6-0.9-10.4-2.6-14.4-1.4-3.1-5.4-7.6-9.1-7.6q-2.6 0-4.2 2.5c-1.2 1.8-1.5 4.3-1.7 6.4v0.5c-0.2 1.6-0.3 3.2-0.3 4.7-0.1 1.6-0.2 3.3-0.4 5-0.3 2.7-0.8 6.1-2.5 8.9-1.3 2-3.4 3-6.5 3q-0.1 0-0.3 0v-2.8h-13.9v39.2h13.9v-2.3c6.4 0.3 12.9 1.1 19.2 2 4.7 0.6 9.6 1.3 14.4 1.7h0.2c1.1 0.1 2.3 0.2 3.4 0.2q0 0 0 0c2 0 4.6-0.3 6.8-2.2 2.4-2.2 2.6-6.1 1.7-9.2 2.6-2.8 4.4-7.1 2.3-11.2zm-57.1-9.8v-4.2h4.2v4.2zm51 18.9c-0.5 0.5-0.9 1.4-0.6 2.1 0.7 1.7 1.1 4 0.3 5.5q-0.6 1.2-1.9 1.5-1.3 0.3-3 0.3c-1.9 0-3.9-0.3-5.7-0.5q-1.2-0.2-2.2-0.3c-2.9-0.4-5.9-0.8-8.8-1.2-6.5-0.8-13.3-1.8-20-2v-25.7q0.3 0 0.5 0c11.9 0 12.8-12.9 13.5-22.4q0.1-2 0.3-3.7v-0.5c0.1-1.3 0.3-3.6 1.3-4.2q0.4-0.3 0.7-0.3c1.7 0 3.9 3.1 4.6 4.5 2 3.8 2.8 9.2 2.6 15.9q0 0.9 0.5 1.5c0.5 0.5 1.3 0.7 2.1 0.6 3.8-0.7 7.8-1.5 11.7-1.5 1.5 0 2.8 0.1 4.1 0.3q3.5 0.6 3.7 2.4c0.2 1.2-0.5 2.6-1.1 3.7-0.4 0.7-1.1 1.7-1.2 1.8-0.5 0.6-0.7 1.4-0.5 2.1 0.1 0.5 0.4 1 1 1.2q1.8 0.9 2.1 2.7c0.3 1.7-0.4 3.9-1.9 5.4-0.6 0.6-0.9 1.8-0.3 2.6 2.6 3.4 0 6.6-1.8 8.2z"/></g></svg>