<svg version="1.2" xmlns="http://www.w3.org/2000/svg" viewBox="0 0 12 17" width="12" height="17"><defs><clipPath clipPathUnits="userSpaceOnUse" id="cp1"><path d="m-852-2833h1920v3447h-1920z"/></clipPath></defs><style>.a{fill:#f5ed08}</style><g clip-path="url(#cp1)"><path fill-rule="evenodd" class="a" d="m6.5 1c-3 0-5.5 2.4-5.5 5.4 0 3.8 4.9 9.2 5.1 9.4 0.2 0.3 0.6 0.3 0.8 0 0.2-0.2 5.1-5.6 5.1-9.4 0-3-2.5-5.4-5.5-5.4zm0 8.2c-1.5 0-2.8-1.3-2.8-2.8 0-1.5 1.3-2.7 2.8-2.7 1.5 0 2.8 1.2 2.8 2.7 0 1.5-1.3 2.8-2.8 2.8z"/></g></svg>