<svg version="1.2" xmlns="http://www.w3.org/2000/svg" viewBox="0 0 13 14" width="13" height="14"><defs><clipPath clipPathUnits="userSpaceOnUse" id="cp1"><path d="m-1390-19h1920v3447h-1920z"/></clipPath></defs><style>.a{fill:#151517}</style><g clip-path="url(#cp1)"><path class="a" d="m12.7 10.3l-2-2c-0.4-0.4-1.1-0.4-1.5 0l-1 1q-0.1 0-0.2-0.1c-0.6-0.3-1.5-0.8-2.4-1.8-0.9-0.9-1.4-1.8-1.8-2.4q0-0.1-0.1-0.2l0.7-0.7 0.3-0.3c0.4-0.4 0.4-1.1 0-1.5l-2-2c-0.4-0.4-1-0.4-1.4 0l-0.6 0.6q-0.3 0.4-0.5 0.8-0.1 0.5-0.2 0.9c-0.2 2.2 0.8 4.2 3.5 6.9 3.8 3.8 6.8 3.5 6.9 3.5q0.5 0 0.9-0.2 0.4-0.2 0.8-0.5l0.6-0.5c0.4-0.4 0.4-1.1 0-1.5z"/></g></svg>