<svg version="1.2" xmlns="http://www.w3.org/2000/svg" viewBox="0 0 70 74" width="70" height="74"><defs><clipPath clipPathUnits="userSpaceOnUse" id="cp1"><path d="m-1375-717h1920v3447h-1920z"/></clipPath></defs><style>.a{fill:#878787}</style><g clip-path="url(#cp1)"><path fill-rule="evenodd" class="a" d="m69.3 44c1.5 3.1 0.3 6.8-2.7 8.4l-5.5 2.9c-0.6 0.3-1 0.9-1.1 1.6l-1.1 6.1c-0.6 3.4-3.7 5.7-7.1 5.2l-6.1-0.9c-0.7-0.1-1.4 0.1-1.8 0.6l-4.5 4.3c-1.2 1.2-2.8 1.8-4.4 1.8-1.6 0-3.2-0.6-4.4-1.8l-4.5-4.3c-0.4-0.5-1.1-0.7-1.8-0.6l-6.1 0.9q-0.5 0-0.9 0c-3.1 0-5.7-2.1-6.2-5.2l-1.1-6.1c-0.1-0.7-0.5-1.3-1.1-1.6l-5.5-2.9c-3-1.6-4.2-5.3-2.7-8.4l2.7-5.6c0.3-0.6 0.3-1.2 0-1.8l-2.7-5.6c-1.5-3.1-0.3-6.8 2.7-8.4l5.5-2.9c0.6-0.4 1-0.9 1.1-1.6l1.1-6.1c0.5-3.4 3.7-5.7 7.1-5.2l6.1 0.9c0.7 0.1 1.4-0.1 1.8-0.6l4.5-4.3c2.5-2.4 6.3-2.4 8.8 0l4.5 4.3c0.4 0.5 1.1 0.7 1.8 0.6l6.1-0.9c3.4-0.5 6.5 1.8 7.1 5.2l1.1 6.1c0.1 0.7 0.5 1.2 1.1 1.6l5.5 2.9c3 1.6 4.2 5.3 2.7 8.4l-2.7 5.6c-0.3 0.6-0.3 1.2 0 1.8zm-50.4-17.7c0 4.3 3.4 7.7 7.7 7.7 4.2 0 7.7-3.4 7.7-7.7 0-4.3-3.5-7.7-7.7-7.7-4.3 0-7.7 3.4-7.7 7.7zm31.4-1.2c0.9-0.8 0.9-2.1 0-3-0.8-0.8-2.1-0.8-2.9 0l-27.8 27.8c-0.8 0.9-0.8 2.2 0 3 0.4 0.4 1 0.6 1.5 0.6 0.5 0 1.1-0.2 1.5-0.6zm0.7 23.6c0-4.2-3.4-7.7-7.7-7.7-4.2 0-7.7 3.5-7.7 7.7 0 4.3 3.5 7.8 7.7 7.8 4.3 0 7.7-3.5 7.7-7.8zm-4.2 0c0 2-1.5 3.6-3.5 3.6-1.9 0-3.5-1.6-3.5-3.6 0-1.9 1.6-3.5 3.5-3.5 2 0 3.5 1.6 3.5 3.5zm-16.8-22.4c0 1.9-1.5 3.5-3.5 3.5-1.9 0-3.5-1.6-3.5-3.5 0-1.9 1.6-3.5 3.5-3.5 2 0 3.5 1.6 3.5 3.5z"/></g></svg>