<svg version="1.2" xmlns="http://www.w3.org/2000/svg" viewBox="0 0 16 16" width="16" height="16"><defs><clipPath clipPathUnits="userSpaceOnUse" id="cp1"><path d="m-457-17h1920v3447h-1920z"/></clipPath></defs><style>.a{fill:#151517}</style><g clip-path="url(#cp1)"><path fill-rule="evenodd" class="a" d="m15.4 9.6q0.1-0.5 0.1-1.1c0-3.8-3.2-7-7-7q-0.6 0-1.1 0.1c-0.6-0.4-1.4-0.6-2.2-0.6-2.3 0-4.2 1.9-4.2 4.2 0 0.8 0.2 1.6 0.6 2.2q-0.1 0.5-0.1 1.1c0 3.8 3.2 7 7 7q0.6 0 1.1-0.1c0.6 0.4 1.4 0.6 2.2 0.6 2.3 0 4.2-1.9 4.2-4.2 0-0.8-0.2-1.6-0.6-2.2zm-3.6 2.1q-0.4 0.6-1.3 1-0.8 0.3-2 0.3-1.4 0-2.3-0.5-0.6-0.3-1-0.9-0.4-0.6-0.4-1.2 0-0.3 0.2-0.5 0.3-0.3 0.6-0.3 0.3 0 0.6 0.2 0.2 0.2 0.3 0.6 0.2 0.4 0.4 0.6 0.2 0.3 0.6 0.5 0.3 0.2 1 0.2 0.8 0 1.3-0.4 0.5-0.4 0.5-0.9 0-0.4-0.3-0.7-0.2-0.2-0.7-0.4-0.4-0.1-1.2-0.3-1-0.2-1.7-0.5-0.7-0.3-1.1-0.8-0.4-0.5-0.4-1.3 0-0.7 0.5-1.2 0.4-0.6 1.2-0.9 0.8-0.3 1.9-0.3 0.8 0 1.5 0.2 0.6 0.2 1 0.5 0.4 0.3 0.6 0.7 0.2 0.4 0.2 0.7 0 0.4-0.2 0.6-0.3 0.3-0.6 0.3-0.4 0-0.5-0.2-0.2-0.1-0.4-0.5-0.3-0.5-0.6-0.7-0.4-0.3-1.2-0.3-0.7 0-1.1 0.3-0.5 0.3-0.5 0.7 0 0.2 0.2 0.4 0.1 0.2 0.4 0.3 0.3 0.2 0.5 0.2 0.3 0.1 0.9 0.3 0.8 0.1 1.5 0.3 0.6 0.2 1.1 0.5 0.4 0.3 0.7 0.8 0.2 0.5 0.2 1.1 0 0.8-0.4 1.5z"/></g></svg>