<svg version="1.2" xmlns="http://www.w3.org/2000/svg" viewBox="0 0 75 53" width="75" height="53"><defs><clipPath clipPathUnits="userSpaceOnUse" id="cp1"><path d="m-772-728h1920v3447h-1920z"/></clipPath></defs><style>.a{fill:#878787}</style><g clip-path="url(#cp1)"><path fill-rule="evenodd" class="a" d="m3.6 35.6v-31.4c0-1.8 1.4-3.2 3.2-3.2h31.4c1.8 0 3.2 1.4 3.2 3.2v31.4c0 0.6-0.5 1.1-1.1 1.1h-35.6c-0.6 0-1.1-0.5-1.1-1.1zm25.4 10.8c0 3.7-2.9 6.6-6.6 6.6-3.6 0-6.5-2.9-6.5-6.6 0-3.6 2.9-6.5 6.5-6.5 3.7 0 6.6 2.9 6.6 6.5zm-3.3 0c0-1.8-1.4-3.3-3.3-3.3-1.8 0-3.2 1.5-3.2 3.3 0 1.8 1.4 3.3 3.2 3.3 1.9 0 3.3-1.5 3.3-3.3zm-8.9-6.5h-14.7c-0.6 0-1.1 0.4-1.1 1v3.2c0 0.6 0.5 1.1 1.1 1.1h11.8c0.3-2.1 1.3-4 2.9-5.3zm46.6 6.5c0 3.7-3 6.6-6.6 6.6-3.6 0-6.6-2.9-6.6-6.6 0-3.6 3-6.5 6.6-6.5 3.6 0 6.6 2.9 6.6 6.5zm-3.3 0c0-1.8-1.5-3.3-3.3-3.3-1.8 0-3.3 1.5-3.3 3.3 0 1.8 1.5 3.3 3.3 3.3 1.8 0 3.3-1.5 3.3-3.3zm14.9-5.5v3.2c0 0.6-0.5 1.1-1.1 1.1h-8.5c-0.6-4.2-4.2-7.5-8.6-7.5-4.3 0-8 3.3-8.6 7.5h-17.2c-0.3-2.1-1.4-4-2.9-5.3h16.3v-30.2c0-1.2 1-2.1 2.1-2.1h10c2.8 0 5.4 1.3 7 3.7l6.4 9.5c1 1.4 1.5 3 1.5 4.7v14.4h2.5c0.6 0 1.1 0.4 1.1 1zm-10.7-19.9l-5.2-7.3c-0.1-0.3-0.5-0.4-0.8-0.4h-8c-0.6 0-1.1 0.5-1.1 1v7.3c0 0.6 0.5 1.1 1.1 1.1h13.1c0.9 0 1.4-1 0.9-1.7z"/></g></svg>