<svg version="1.2" xmlns="http://www.w3.org/2000/svg" viewBox="0 0 17 14" width="17" height="14"><defs><clipPath clipPathUnits="userSpaceOnUse" id="cp1"><path d="m-419-18h1920v3447h-1920z"/></clipPath></defs><style>.a{fill:#151517}</style><g clip-path="url(#cp1)"><path class="a" d="m16.6 1.2q-1 0.6-2.1 0.8c-0.6-0.6-1.5-1-2.4-1-1.8 0-3.3 1.5-3.3 3.3q0 0.4 0.1 0.7c-2.7-0.1-5.2-1.4-6.8-3.4q-0.4 0.7-0.4 1.6c0 1.2 0.6 2.2 1.4 2.8q-0.8-0.1-1.5-0.4c0 1.6 1.2 2.9 2.7 3.2q-0.4 0.1-0.9 0.1-0.3 0-0.6 0c0.4 1.3 1.6 2.2 3.1 2.3-1.2 0.8-2.6 1.4-4.1 1.4q-0.4 0-0.8-0.1c1.5 1 3.2 1.5 5 1.5 6.1 0 9.4-5 9.4-9.3v-0.5q0.9-0.7 1.6-1.7-0.9 0.4-1.9 0.6c0.7-0.5 1.2-1.1 1.5-1.9z"/></g></svg>